<?xml version="1.0" encoding="UTF-8" standalone="no" ?>
<!DOCTYPE svg PUBLIC "-//W3C//DTD SVG 1.1//EN" "http://www.w3.org/Graphics/SVG/1.1/DTD/svg11.dtd">
<svg width="102mm" xmlns="http://www.w3.org/2000/svg" height="119mm" version="1.1" viewBox="0 0 388 453" xmlns:xlink="http://www.w3.org/1999/xlink">
   <a target="_parent" xlink:href="Data27.htm#1">
      <polyline fill="none" points="201,145 201,187" stroke="#800040" stroke-width="1" stroke-dasharray="16,8"/>
      <polyline fill="none" points="201,187 201,229" stroke="#800040" stroke-width="1"/>
      <polyline fill="none" points="191,242 201,216 210,242 191,242" stroke="#800040" stroke-width="1"/>
      <text x="242" y="190" fill="#000000" font-size="10" font-family="'Arial Unicode MS','Arial'" text-anchor="middle">Country_States</text>
   </a>
   <a target="_parent" xlink:href="Data28.htm#1">
      <polyline fill="none" points="211,299 211,339" stroke="#800040" stroke-width="1" stroke-dasharray="16,8"/>
      <polyline fill="none" points="211,339 211,378" stroke="#800040" stroke-width="1"/>
      <polyline fill="none" points="202,392 211,365 221,392 202,392" stroke="#800040" stroke-width="1"/>
      <text x="241" y="337" fill="#000000" font-size="10" font-family="'Arial Unicode MS','Arial'" text-anchor="middle">State_City</text>
   </a>
   <a target="_parent" xlink:href="Data23.htm#1">
      <rect x="57" y="21" rx="15" ry="15" fill="#ffffff" width="280" height="124" stroke="#ffffff" stroke-width="1"/>
      <rect x="56" y="20" rx="15" ry="15" fill="#fafafa" width="280" height="124" stroke="#fafafa" stroke-width="1"/>
      <rect x="55" y="19" rx="15" ry="15" fill="#f3f3f3" width="280" height="124" stroke="#f3f3f3" stroke-width="1"/>
      <rect x="54" y="18" rx="15" ry="15" fill="#ebebeb" width="280" height="124" stroke="#ebebeb" stroke-width="1"/>
      <rect x="53" y="17" rx="15" ry="15" fill="#dedede" width="280" height="124" stroke="#dedede" stroke-width="1"/>
      <rect x="52" y="16" rx="15" ry="15" fill="#d0d0d0" width="280" height="124" stroke="#d0d0d0" stroke-width="1"/>
      <defs>
         <linearGradient id="Gradient1" x1="0%" x2="100%" y1="0%" y2="100%" gradientUnits="objectBoundingBox">
            <stop offset="5%" stop-color="#ffffff"/>
            <stop offset="95%" stop-color="#e9ca83"/>
         </linearGradient>
      </defs>
      <rect x="51" y="15" rx="15" ry="15" fill="url(#Gradient1)" width="280" height="124" stroke="#808040" stroke-width="1"/>
      <text x="191" y="26" fill="#000000" font-size="10" font-family="'Arial Unicode MS','Arial'" text-anchor="middle">tbCountry</text>
      <text x="63" y="40" fill="#000000" font-size="10" font-family="'Arial Unicode MS','Arial'" text-decoration="underline">#</text>
      <text x="63" y="53" fill="#000000" font-size="10" font-family="'Arial Unicode MS','Arial'">*</text>
      <text x="63" y="66" fill="#000000" font-size="10" font-family="'Arial Unicode MS','Arial'">*</text>
      <text x="63" y="79" fill="#000000" font-size="10" font-family="'Arial Unicode MS','Arial'">*</text>
      <text x="63" y="92" fill="#000000" font-size="10" font-family="'Arial Unicode MS','Arial'">*</text>
      <text x="63" y="105" fill="#000000" font-size="10" font-family="'Arial Unicode MS','Arial'">*</text>
      <text x="63" y="118" fill="#000000" font-size="10" font-family="'Arial Unicode MS','Arial'">*</text>
      <text x="77" y="40" fill="#000000" font-size="10" font-family="'Arial Unicode MS','Arial'" text-decoration="underline">COU_ID</text>
      <text x="77" y="53" fill="#000000" font-size="10" font-family="'Arial Unicode MS','Arial'">COU_Nome</text>
      <text x="77" y="66" fill="#000000" font-size="10" font-family="'Arial Unicode MS','Arial'">COU_Name</text>
      <text x="77" y="79" fill="#000000" font-size="10" font-family="'Arial Unicode MS','Arial'">COU_Nombre</text>
      <text x="77" y="92" fill="#000000" font-size="10" font-family="'Arial Unicode MS','Arial'">COU_ISO31661Numeric</text>
      <text x="77" y="105" fill="#000000" font-size="10" font-family="'Arial Unicode MS','Arial'">COU_ISO31661Alpha2</text>
      <text x="77" y="118" fill="#000000" font-size="10" font-family="'Arial Unicode MS','Arial'">COU_ISO31661Alpha3</text>
      <text x="200" y="40" fill="#000000" font-size="10" font-family="'Arial Unicode MS','Arial'" text-decoration="underline">Integer</text>
      <text x="200" y="53" fill="#000000" font-size="10" font-family="'Arial Unicode MS','Arial'">Variable characters (100)</text>
      <text x="200" y="66" fill="#000000" font-size="10" font-family="'Arial Unicode MS','Arial'">Variable characters (100)</text>
      <text x="200" y="79" fill="#000000" font-size="10" font-family="'Arial Unicode MS','Arial'">Variable characters (100)</text>
      <text x="200" y="92" fill="#000000" font-size="10" font-family="'Arial Unicode MS','Arial'">Integer</text>
      <text x="200" y="105" fill="#000000" font-size="10" font-family="'Arial Unicode MS','Arial'">Integer</text>
      <text x="200" y="118" fill="#000000" font-size="10" font-family="'Arial Unicode MS','Arial'">Integer</text>
   </a>
   <a target="_parent" xlink:href="Data24.htm#1">
      <rect x="100" y="235" rx="8" ry="8" fill="#ffffff" width="213" height="64" stroke="#ffffff" stroke-width="1"/>
      <rect x="99" y="234" rx="8" ry="8" fill="#fafafa" width="213" height="64" stroke="#fafafa" stroke-width="1"/>
      <rect x="98" y="233" rx="8" ry="8" fill="#f3f3f3" width="213" height="64" stroke="#f3f3f3" stroke-width="1"/>
      <rect x="97" y="232" rx="8" ry="8" fill="#ebebeb" width="213" height="64" stroke="#ebebeb" stroke-width="1"/>
      <rect x="96" y="231" rx="8" ry="8" fill="#dedede" width="213" height="64" stroke="#dedede" stroke-width="1"/>
      <rect x="95" y="230" rx="8" ry="8" fill="#d0d0d0" width="213" height="64" stroke="#d0d0d0" stroke-width="1"/>
      <defs>
         <linearGradient id="Gradient2" x1="0%" x2="100%" y1="0%" y2="100%" gradientUnits="objectBoundingBox">
            <stop offset="5%" stop-color="#ffffff"/>
            <stop offset="95%" stop-color="#e9ca83"/>
         </linearGradient>
      </defs>
      <rect x="94" y="229" rx="8" ry="8" fill="url(#Gradient2)" width="213" height="64" stroke="#808040" stroke-width="1"/>
      <text x="200" y="240" fill="#000000" font-size="10" font-family="'Arial Unicode MS','Arial'" text-anchor="middle">tbCountryState</text>
      <text x="103" y="254" fill="#000000" font-size="10" font-family="'Arial Unicode MS','Arial'" text-decoration="underline">#</text>
      <text x="103" y="267" fill="#000000" font-size="10" font-family="'Arial Unicode MS','Arial'">*</text>
      <text x="103" y="280" fill="#000000" font-size="10" font-family="'Arial Unicode MS','Arial'">*</text>
      <text x="117" y="254" fill="#000000" font-size="10" font-family="'Arial Unicode MS','Arial'" text-decoration="underline">CST_ID</text>
      <text x="117" y="267" fill="#000000" font-size="10" font-family="'Arial Unicode MS','Arial'">CST_Name</text>
      <text x="117" y="280" fill="#000000" font-size="10" font-family="'Arial Unicode MS','Arial'">CST_UF</text>
      <text x="180" y="254" fill="#000000" font-size="10" font-family="'Arial Unicode MS','Arial'" text-decoration="underline">Integer</text>
      <text x="180" y="267" fill="#000000" font-size="10" font-family="'Arial Unicode MS','Arial'">Variable characters (100)</text>
      <text x="180" y="280" fill="#000000" font-size="10" font-family="'Arial Unicode MS','Arial'">Variable characters (2)</text>
   </a>
   <a target="_parent" xlink:href="Data25.htm#1">
      <rect x="111" y="384" rx="6" ry="6" fill="#ffffff" width="213" height="54" stroke="#ffffff" stroke-width="1"/>
      <rect x="110" y="383" rx="6" ry="6" fill="#fafafa" width="213" height="54" stroke="#fafafa" stroke-width="1"/>
      <rect x="109" y="382" rx="6" ry="6" fill="#f3f3f3" width="213" height="54" stroke="#f3f3f3" stroke-width="1"/>
      <rect x="108" y="381" rx="6" ry="6" fill="#ebebeb" width="213" height="54" stroke="#ebebeb" stroke-width="1"/>
      <rect x="107" y="380" rx="6" ry="6" fill="#dedede" width="213" height="54" stroke="#dedede" stroke-width="1"/>
      <rect x="106" y="379" rx="6" ry="6" fill="#d0d0d0" width="213" height="54" stroke="#d0d0d0" stroke-width="1"/>
      <defs>
         <linearGradient id="Gradient3" x1="0%" x2="100%" y1="0%" y2="100%" gradientUnits="objectBoundingBox">
            <stop offset="5%" stop-color="#ffffff"/>
            <stop offset="95%" stop-color="#e9ca83"/>
         </linearGradient>
      </defs>
      <rect x="105" y="378" rx="6" ry="6" fill="url(#Gradient3)" width="213" height="54" stroke="#808040" stroke-width="1"/>
      <text x="211" y="389" fill="#000000" font-size="10" font-family="'Arial Unicode MS','Arial'" text-anchor="middle">tbStateCity</text>
      <text x="113" y="403" fill="#000000" font-size="10" font-family="'Arial Unicode MS','Arial'" text-decoration="underline">#</text>
      <text x="113" y="416" fill="#000000" font-size="10" font-family="'Arial Unicode MS','Arial'">*</text>
      <text x="127" y="403" fill="#000000" font-size="10" font-family="'Arial Unicode MS','Arial'" text-decoration="underline">SCI_ID</text>
      <text x="127" y="416" fill="#000000" font-size="10" font-family="'Arial Unicode MS','Arial'">SCI_Name</text>
      <text x="186" y="403" fill="#000000" font-size="10" font-family="'Arial Unicode MS','Arial'" text-decoration="underline">Integer</text>
      <text x="186" y="416" fill="#000000" font-size="10" font-family="'Arial Unicode MS','Arial'">Variable characters (100)</text>
   </a>
</svg>
